<svg width="108" height="25" viewBox="0 0 108 25" fill="none" xmlns="http://www.w3.org/2000/svg">
<g filter="url(#filter0_d_6_79)">
<path d="M4.2642 16H7.33949V9.99148H13.5824V16H16.6506V1.45455H13.5824V7.45597H7.33949V1.45455H4.2642V16ZM24.0582 16.2131C27.3679 16.2131 29.4276 13.9474 29.4276 10.5881C29.4276 7.20739 27.3679 4.94886 24.0582 4.94886C20.7486 4.94886 18.6889 7.20739 18.6889 10.5881C18.6889 13.9474 20.7486 16.2131 24.0582 16.2131ZM24.0724 13.8693C22.5455 13.8693 21.7642 12.4702 21.7642 10.5668C21.7642 8.66335 22.5455 7.2571 24.0724 7.2571C25.571 7.2571 26.3523 8.66335 26.3523 10.5668C26.3523 12.4702 25.571 13.8693 24.0724 13.8693ZM37.1974 5.09091H35.1449V2.47727H32.1193V5.09091H30.6278V7.36364H32.1193V13.0455C32.1051 15.1832 33.5611 16.2415 35.7557 16.1491C36.5369 16.1207 37.0909 15.9645 37.3963 15.8651L36.9205 13.6136C36.7713 13.642 36.4517 13.7131 36.1676 13.7131C35.5639 13.7131 35.1449 13.4858 35.1449 12.6477V7.36364H37.1974V5.09091ZM52.0589 6.54688C51.6541 3.1875 49.1115 1.25568 45.745 1.25568C41.9027 1.25568 38.9695 3.96875 38.9695 8.72727C38.9695 13.4716 41.853 16.1989 45.745 16.1989C49.4737 16.1989 51.7251 13.7202 52.0589 11.0426L48.9482 11.0284C48.657 12.5838 47.4354 13.4787 45.7947 13.4787C43.5859 13.4787 42.0874 11.8381 42.0874 8.72727C42.0874 5.7017 43.5646 3.97585 45.8161 3.97585C47.4993 3.97585 48.7138 4.94886 48.9482 6.54688H52.0589ZM59.1364 16.2131C62.446 16.2131 64.5057 13.9474 64.5057 10.5881C64.5057 7.20739 62.446 4.94886 59.1364 4.94886C55.8267 4.94886 53.767 7.20739 53.767 10.5881C53.767 13.9474 55.8267 16.2131 59.1364 16.2131ZM59.1506 13.8693C57.6236 13.8693 56.8423 12.4702 56.8423 10.5668C56.8423 8.66335 57.6236 7.2571 59.1506 7.2571C60.6491 7.2571 61.4304 8.66335 61.4304 10.5668C61.4304 12.4702 60.6491 13.8693 59.1506 13.8693ZM72.3395 5.09091H70.1733V4.35938C70.1733 3.62074 70.4716 3.1875 71.3594 3.1875C71.7216 3.1875 72.0909 3.26562 72.3324 3.34375L72.8651 1.07102C72.4886 0.957386 71.6577 0.772726 70.7273 0.772726C68.6747 0.772726 67.1477 1.9304 67.1477 4.30256V5.09091H65.6065V7.36364H67.1477V16H70.1733V7.36364H72.3395V5.09091ZM80.0543 5.09091H77.8881V4.35938C77.8881 3.62074 78.1864 3.1875 79.0742 3.1875C79.4364 3.1875 79.8058 3.26562 80.0472 3.34375L80.5799 1.07102C80.2035 0.957386 79.3725 0.772726 78.4421 0.772726C76.3896 0.772726 74.8626 1.9304 74.8626 4.30256V5.09091H73.3214V7.36364H74.8626V16H77.8881V7.36364H80.0543V5.09091ZM86.4837 16.2131C89.1825 16.2131 91.0007 14.8991 91.4268 12.875L88.6286 12.6903C88.3232 13.5213 87.5419 13.9545 86.5334 13.9545C85.0206 13.9545 84.0618 12.9531 84.0618 11.3267V11.3196H91.4908V10.4886C91.4908 6.78125 89.2464 4.94886 86.3629 4.94886C83.1527 4.94886 81.0717 7.22869 81.0717 10.5952C81.0717 14.054 83.1243 16.2131 86.4837 16.2131ZM84.0618 9.4446C84.1257 8.2017 85.0703 7.20739 86.4126 7.20739C87.7266 7.20739 88.6357 8.14489 88.6428 9.4446H84.0618ZM98.4368 16.2131C101.136 16.2131 102.954 14.8991 103.38 12.875L100.582 12.6903C100.276 13.5213 99.495 13.9545 98.4865 13.9545C96.9737 13.9545 96.0149 12.9531 96.0149 11.3267V11.3196H103.444V10.4886C103.444 6.78125 101.2 4.94886 98.3161 4.94886C95.1058 4.94886 93.0249 7.22869 93.0249 10.5952C93.0249 14.054 95.0774 16.2131 98.4368 16.2131ZM96.0149 9.4446C96.0788 8.2017 97.0234 7.20739 98.3658 7.20739C99.6797 7.20739 100.589 8.14489 100.596 9.4446H96.0149Z" fill="black"/>
<path d="M4.2642 16H3.2642V17H4.2642V16ZM7.33949 16V17H8.33949V16H7.33949ZM7.33949 9.99148V8.99148H6.33949V9.99148H7.33949ZM13.5824 9.99148H14.5824V8.99148H13.5824V9.99148ZM13.5824 16H12.5824V17H13.5824V16ZM16.6506 16V17H17.6506V16H16.6506ZM16.6506 1.45455H17.6506V0.454545H16.6506V1.45455ZM13.5824 1.45455V0.454545H12.5824V1.45455H13.5824ZM13.5824 7.45597V8.45597H14.5824V7.45597H13.5824ZM7.33949 7.45597H6.33949V8.45597H7.33949V7.45597ZM7.33949 1.45455H8.33949V0.454545H7.33949V1.45455ZM4.2642 1.45455V0.454545H3.2642V1.45455H4.2642ZM4.2642 17H7.33949V15H4.2642V17ZM8.33949 16V9.99148H6.33949V16H8.33949ZM7.33949 10.9915H13.5824V8.99148H7.33949V10.9915ZM12.5824 9.99148V16H14.5824V9.99148H12.5824ZM13.5824 17H16.6506V15H13.5824V17ZM17.6506 16V1.45455H15.6506V16H17.6506ZM16.6506 0.454545H13.5824V2.45455H16.6506V0.454545ZM12.5824 1.45455V7.45597H14.5824V1.45455H12.5824ZM13.5824 6.45597H7.33949V8.45597H13.5824V6.45597ZM8.33949 7.45597V1.45455H6.33949V7.45597H8.33949ZM7.33949 0.454545H4.2642V2.45455H7.33949V0.454545ZM3.2642 1.45455V16H5.2642V1.45455H3.2642ZM24.0582 17.2131C25.9509 17.2131 27.5701 16.5588 28.7121 15.3458C29.8477 14.1397 30.4276 12.4712 30.4276 10.5881H28.4276C28.4276 12.0643 27.9776 13.2083 27.2559 13.9748C26.5407 14.7345 25.4752 15.2131 24.0582 15.2131V17.2131ZM30.4276 10.5881C30.4276 8.69575 29.8485 7.02334 28.7124 5.81555C27.5697 4.60077 25.95 3.94886 24.0582 3.94886V5.94886C25.4761 5.94886 26.5411 6.42621 27.2556 7.18587C27.9768 7.95251 28.4276 9.0997 28.4276 10.5881H30.4276ZM24.0582 3.94886C22.1664 3.94886 20.5467 4.60077 19.4041 5.81555C18.268 7.02334 17.6889 8.69575 17.6889 10.5881H19.6889C19.6889 9.0997 20.1397 7.95251 20.8608 7.18587C21.5754 6.42621 22.6404 5.94886 24.0582 5.94886V3.94886ZM17.6889 10.5881C17.6889 12.4712 18.2688 14.1397 19.4044 15.3458C20.5464 16.5588 22.1656 17.2131 24.0582 17.2131V15.2131C22.6412 15.2131 21.5757 14.7345 20.8605 13.9748C20.1389 13.2083 19.6889 12.0643 19.6889 10.5881H17.6889ZM24.0724 12.8693C23.6678 12.8693 23.3952 12.708 23.1814 12.3827C22.9386 12.0131 22.7642 11.4017 22.7642 10.5668H20.7642C20.7642 11.6352 20.9804 12.6751 21.51 13.481C22.0686 14.3311 22.9501 14.8693 24.0724 14.8693V12.8693ZM22.7642 10.5668C22.7642 9.73185 22.9386 9.11799 23.1822 8.74615C23.397 8.41828 23.6699 8.2571 24.0724 8.2571V6.2571C22.948 6.2571 22.0668 6.79905 21.5092 7.65016C20.9805 8.45729 20.7642 9.49826 20.7642 10.5668H22.7642ZM24.0724 8.2571C24.4536 8.2571 24.7207 8.41161 24.9355 8.74261C25.178 9.11616 25.3523 9.73215 25.3523 10.5668H27.3523C27.3523 9.49797 27.1359 8.45913 26.6131 7.6537C26.0627 6.80572 25.1899 6.2571 24.0724 6.2571V8.2571ZM25.3523 10.5668C25.3523 11.4014 25.178 12.015 24.9363 12.3862C24.7225 12.7146 24.4557 12.8693 24.0724 12.8693V14.8693C25.1878 14.8693 26.0609 14.3244 26.6124 13.4774C27.1359 12.6733 27.3523 11.6355 27.3523 10.5668H25.3523ZM37.1974 5.09091H38.1974V4.09091H37.1974V5.09091ZM35.1449 5.09091H34.1449V6.09091H35.1449V5.09091ZM35.1449 2.47727H36.1449V1.47727H35.1449V2.47727ZM32.1193 2.47727V1.47727H31.1193V2.47727H32.1193ZM32.1193 5.09091V6.09091H33.1193V5.09091H32.1193ZM30.6278 5.09091V4.09091H29.6278V5.09091H30.6278ZM30.6278 7.36364H29.6278V8.36364H30.6278V7.36364ZM32.1193 7.36364H33.1193V6.36364H32.1193V7.36364ZM32.1193 13.0455L33.1193 13.0521V13.0455H32.1193ZM35.7557 16.1491L35.7193 15.1498L35.7136 15.15L35.7557 16.1491ZM37.3963 15.8651L37.7059 16.8159L38.5606 16.5377L38.3747 15.6583L37.3963 15.8651ZM36.9205 13.6136L37.8988 13.4068L37.6962 12.4479L36.7333 12.6313L36.9205 13.6136ZM35.1449 7.36364V6.36364H34.1449V7.36364H35.1449ZM37.1974 7.36364V8.36364H38.1974V7.36364H37.1974ZM37.1974 4.09091H35.1449V6.09091H37.1974V4.09091ZM36.1449 5.09091V2.47727H34.1449V5.09091H36.1449ZM35.1449 1.47727H32.1193V3.47727H35.1449V1.47727ZM31.1193 2.47727V5.09091H33.1193V2.47727H31.1193ZM32.1193 4.09091H30.6278V6.09091H32.1193V4.09091ZM29.6278 5.09091V7.36364H31.6278V5.09091H29.6278ZM30.6278 8.36364H32.1193V6.36364H30.6278V8.36364ZM31.1193 7.36364V13.0455H33.1193V7.36364H31.1193ZM31.1193 13.0388C31.1106 14.3506 31.5631 15.4615 32.4764 16.2079C33.3627 16.9323 34.5459 17.2009 35.7977 17.1483L35.7136 15.15C34.7709 15.1897 34.1288 14.9754 33.742 14.6593C33.3822 14.3652 33.1138 13.8781 33.1193 13.0521L31.1193 13.0388ZM35.792 17.1485C36.694 17.1157 37.3432 16.934 37.7059 16.8159L37.0867 14.9142C36.8386 14.995 36.3799 15.1258 35.7193 15.1498L35.792 17.1485ZM38.3747 15.6583L37.8988 13.4068L35.9421 13.8204L36.4179 16.0718L38.3747 15.6583ZM36.7333 12.6313C36.6338 12.6503 36.5517 12.6683 36.4377 12.6864C36.3271 12.704 36.2346 12.7131 36.1676 12.7131V14.7131C36.5709 14.7131 37.0083 14.6149 37.1076 14.596L36.7333 12.6313ZM36.1676 12.7131C36.123 12.7131 36.0886 12.7109 36.063 12.708C36.0374 12.7051 36.024 12.7018 36.0201 12.7008C36.0165 12.6998 36.0243 12.7016 36.0395 12.7094C36.0552 12.7176 36.0759 12.7308 36.0974 12.7501C36.1192 12.7696 36.1362 12.7904 36.1484 12.8091C36.1602 12.8273 36.164 12.8385 36.1636 12.8373C36.163 12.8356 36.1582 12.8211 36.1535 12.7894C36.1489 12.7576 36.1449 12.7114 36.1449 12.6477H34.1449C34.1449 13.2183 34.2886 13.8145 34.7623 14.2392C35.2145 14.6446 35.772 14.7131 36.1676 14.7131V12.7131ZM36.1449 12.6477V7.36364H34.1449V12.6477H36.1449ZM35.1449 8.36364H37.1974V6.36364H35.1449V8.36364ZM38.1974 7.36364V5.09091H36.1974V7.36364H38.1974ZM52.0589 6.54688V7.54688H53.1867L53.0518 6.42723L52.0589 6.54688ZM52.0589 11.0426L53.0513 11.1663L53.1907 10.0478L52.0635 10.0426L52.0589 11.0426ZM48.9482 11.0284L48.9527 10.0284L48.1187 10.0246L47.9652 10.8444L48.9482 11.0284ZM48.9482 6.54688L47.9587 6.69199L48.0841 7.54688H48.9482V6.54688ZM53.0518 6.42723C52.8209 4.51113 51.9676 2.94555 50.6446 1.86656C49.33 0.794418 47.618 0.255681 45.745 0.255681V2.25568C47.2385 2.25568 48.4811 2.68285 49.3806 3.41647C50.2717 4.14323 50.8922 5.22325 51.0661 6.66652L53.0518 6.42723ZM45.745 0.255681C43.5822 0.255681 41.6158 1.02404 40.1926 2.51704C38.7706 4.00872 37.9695 6.14 37.9695 8.72727H39.9695C39.9695 6.55603 40.635 4.9515 41.6402 3.89703C42.6442 2.84385 44.0655 2.25568 45.745 2.25568V0.255681ZM37.9695 8.72727C37.9695 11.3034 38.7557 13.4347 40.1717 14.9298C41.5901 16.4276 43.5585 17.1989 45.745 17.1989V15.1989C44.0396 15.1989 42.6201 14.6065 41.6238 13.5546C40.625 12.4999 39.9695 10.8954 39.9695 8.72727H37.9695ZM45.745 17.1989C49.9864 17.1989 52.6561 14.3362 53.0513 11.1663L51.0666 10.9189C50.7942 13.1041 48.961 15.1989 45.745 15.1989V17.1989ZM52.0635 10.0426L48.9527 10.0284L48.9436 12.0284L52.0544 12.0426L52.0635 10.0426ZM47.9652 10.8444C47.8618 11.3967 47.607 11.7848 47.2701 12.0424C46.926 12.3055 46.4341 12.4787 45.7947 12.4787V14.4787C46.796 14.4787 47.7352 14.2044 48.4849 13.6312C49.2417 13.0525 49.7433 12.2155 49.9311 11.2124L47.9652 10.8444ZM45.7947 12.4787C44.958 12.4787 44.329 12.1794 43.8881 11.638C43.4272 11.0721 43.0874 10.1347 43.0874 8.72727H41.0874C41.0874 10.4306 41.4968 11.8689 42.3374 12.901C43.1979 13.9577 44.4227 14.4787 45.7947 14.4787V12.4787ZM43.0874 8.72727C43.0874 7.3651 43.4207 6.42343 43.8869 5.84344C44.333 5.28835 44.9689 4.97585 45.8161 4.97585V2.97585C44.4118 2.97585 43.1833 3.52628 42.328 4.59051C41.4926 5.62984 41.0874 7.06387 41.0874 8.72727H43.0874ZM45.8161 4.97585C46.4641 4.97585 46.9552 5.16127 47.2935 5.43714C47.6269 5.70898 47.8747 6.11871 47.9587 6.69199L49.9376 6.40176C49.7873 5.37703 49.3106 4.50125 48.5574 3.88708C47.809 3.27694 46.8512 2.97585 45.8161 2.97585V4.97585ZM48.9482 7.54688H52.0589V5.54688H48.9482V7.54688ZM59.1364 17.2131C61.029 17.2131 62.6482 16.5588 63.7902 15.3458C64.9258 14.1397 65.5057 12.4712 65.5057 10.5881H63.5057C63.5057 12.0643 63.0558 13.2083 62.3341 13.9748C61.6189 14.7345 60.5534 15.2131 59.1364 15.2131V17.2131ZM65.5057 10.5881C65.5057 8.69575 64.9266 7.02334 63.7905 5.81555C62.6479 4.60077 61.0282 3.94886 59.1364 3.94886V5.94886C60.5542 5.94886 61.6192 6.42621 62.3338 7.18587C63.0549 7.95251 63.5057 9.0997 63.5057 10.5881H65.5057ZM59.1364 3.94886C57.2446 3.94886 55.6249 4.60077 54.4822 5.81555C53.3461 7.02334 52.767 8.69575 52.767 10.5881H54.767C54.767 9.0997 55.2178 7.95251 55.939 7.18587C56.6535 6.42621 57.7185 5.94886 59.1364 5.94886V3.94886ZM52.767 10.5881C52.767 12.4712 53.3469 14.1397 54.4825 15.3458C55.6245 16.5588 57.2437 17.2131 59.1364 17.2131V15.2131C57.7194 15.2131 56.6539 14.7345 55.9387 13.9748C55.217 13.2083 54.767 12.0643 54.767 10.5881H52.767ZM59.1506 12.8693C58.7459 12.8693 58.4733 12.708 58.2596 12.3827C58.0167 12.0131 57.8423 11.4017 57.8423 10.5668H55.8423C55.8423 11.6352 56.0586 12.6751 56.5881 13.481C57.1467 14.3311 58.0282 14.8693 59.1506 14.8693V12.8693ZM57.8423 10.5668C57.8423 9.73185 58.0167 9.11799 58.2603 8.74615C58.4751 8.41828 58.748 8.2571 59.1506 8.2571V6.2571C58.0261 6.2571 57.1449 6.79905 56.5873 7.65016C56.0586 8.45729 55.8423 9.49826 55.8423 10.5668H57.8423ZM59.1506 8.2571C59.5317 8.2571 59.7988 8.41161 60.0137 8.74261C60.2561 9.11616 60.4304 9.73215 60.4304 10.5668H62.4304C62.4304 9.49797 62.214 8.45913 61.6912 7.6537C61.1408 6.80572 60.268 6.2571 59.1506 6.2571V8.2571ZM60.4304 10.5668C60.4304 11.4014 60.2561 12.015 60.0144 12.3862C59.8006 12.7146 59.5338 12.8693 59.1506 12.8693V14.8693C60.2659 14.8693 61.139 14.3244 61.6905 13.4774C62.2141 12.6733 62.4304 11.6355 62.4304 10.5668H60.4304ZM72.3395 5.09091H73.3395V4.09091H72.3395V5.09091ZM70.1733 5.09091H69.1733V6.09091H70.1733V5.09091ZM72.3324 3.34375L72.0246 4.29519L73.0581 4.62958L73.306 3.57194L72.3324 3.34375ZM72.8651 1.07102L73.8387 1.29921L74.0529 0.385051L73.1541 0.113695L72.8651 1.07102ZM67.1477 5.09091V6.09091H68.1477V5.09091H67.1477ZM65.6065 5.09091V4.09091H64.6065V5.09091H65.6065ZM65.6065 7.36364H64.6065V8.36364H65.6065V7.36364ZM67.1477 7.36364H68.1477V6.36364H67.1477V7.36364ZM67.1477 16H66.1477V17H67.1477V16ZM70.1733 16V17H71.1733V16H70.1733ZM70.1733 7.36364V6.36364H69.1733V7.36364H70.1733ZM72.3395 7.36364V8.36364H73.3395V7.36364H72.3395ZM72.3395 4.09091H70.1733V6.09091H72.3395V4.09091ZM71.1733 5.09091V4.35938H69.1733V5.09091H71.1733ZM71.1733 4.35938C71.1733 4.23743 71.1861 4.17101 71.1943 4.14279C71.2009 4.11995 71.1984 4.14207 71.1676 4.1754C71.135 4.21067 71.1082 4.21802 71.1225 4.21313C71.1443 4.2057 71.2145 4.1875 71.3594 4.1875V2.1875C70.7693 2.1875 70.1484 2.33175 69.6992 2.81749C69.2645 3.28761 69.1733 3.88417 69.1733 4.35938H71.1733ZM71.3594 4.1875C71.5961 4.1875 71.8604 4.24207 72.0246 4.29519L72.6402 2.39231C72.3215 2.28918 71.8471 2.1875 71.3594 2.1875V4.1875ZM73.306 3.57194L73.8387 1.29921L71.8914 0.842831L71.3588 3.11556L73.306 3.57194ZM73.1541 0.113695C72.7038 -0.0222368 71.7744 -0.227274 70.7273 -0.227274V1.77273C71.541 1.77273 72.2735 1.93701 72.5761 2.02835L73.1541 0.113695ZM70.7273 -0.227274C69.5204 -0.227274 68.3601 0.114155 67.4916 0.911396C66.6092 1.72138 66.1477 2.89214 66.1477 4.30256H68.1477C68.1477 3.34082 68.4498 2.74666 68.844 2.38477C69.2522 2.01013 69.8816 1.77273 70.7273 1.77273V-0.227274ZM66.1477 4.30256V5.09091H68.1477V4.30256H66.1477ZM67.1477 4.09091H65.6065V6.09091H67.1477V4.09091ZM64.6065 5.09091V7.36364H66.6065V5.09091H64.6065ZM65.6065 8.36364H67.1477V6.36364H65.6065V8.36364ZM66.1477 7.36364V16H68.1477V7.36364H66.1477ZM67.1477 17H70.1733V15H67.1477V17ZM71.1733 16V7.36364H69.1733V16H71.1733ZM70.1733 8.36364H72.3395V6.36364H70.1733V8.36364ZM73.3395 7.36364V5.09091H71.3395V7.36364H73.3395ZM80.0543 5.09091H81.0543V4.09091H80.0543V5.09091ZM77.8881 5.09091H76.8881V6.09091H77.8881V5.09091ZM80.0472 3.34375L79.7394 4.29519L80.773 4.62958L81.0208 3.57194L80.0472 3.34375ZM80.5799 1.07102L81.5535 1.29921L81.7678 0.385051L80.8689 0.113695L80.5799 1.07102ZM74.8626 5.09091V6.09091H75.8626V5.09091H74.8626ZM73.3214 5.09091V4.09091H72.3214V5.09091H73.3214ZM73.3214 7.36364H72.3214V8.36364H73.3214V7.36364ZM74.8626 7.36364H75.8626V6.36364H74.8626V7.36364ZM74.8626 16H73.8626V17H74.8626V16ZM77.8881 16V17H78.8881V16H77.8881ZM77.8881 7.36364V6.36364H76.8881V7.36364H77.8881ZM80.0543 7.36364V8.36364H81.0543V7.36364H80.0543ZM80.0543 4.09091H77.8881V6.09091H80.0543V4.09091ZM78.8881 5.09091V4.35938H76.8881V5.09091H78.8881ZM78.8881 4.35938C78.8881 4.23743 78.901 4.17101 78.9092 4.14279C78.9158 4.11995 78.9133 4.14207 78.8824 4.1754C78.8498 4.21067 78.8231 4.21802 78.8374 4.21313C78.8591 4.2057 78.9294 4.1875 79.0742 4.1875V2.1875C78.4842 2.1875 77.8633 2.33175 77.4141 2.81749C76.9793 3.28761 76.8881 3.88417 76.8881 4.35938H78.8881ZM79.0742 4.1875C79.3109 4.1875 79.5752 4.24207 79.7394 4.29519L80.3551 2.39231C80.0363 2.28918 79.5619 2.1875 79.0742 2.1875V4.1875ZM81.0208 3.57194L81.5535 1.29921L79.6063 0.842831L79.0736 3.11556L81.0208 3.57194ZM80.8689 0.113695C80.4186 -0.0222368 79.4892 -0.227274 78.4421 -0.227274V1.77273C79.2558 1.77273 79.9883 1.93701 80.2909 2.02835L80.8689 0.113695ZM78.4421 -0.227274C77.2353 -0.227274 76.0749 0.114155 75.2064 0.911396C74.324 1.72138 73.8626 2.89214 73.8626 4.30256H75.8626C75.8626 3.34082 76.1646 2.74666 76.5589 2.38477C76.967 2.01013 77.5964 1.77273 78.4421 1.77273V-0.227274ZM73.8626 4.30256V5.09091H75.8626V4.30256H73.8626ZM74.8626 4.09091H73.3214V6.09091H74.8626V4.09091ZM72.3214 5.09091V7.36364H74.3214V5.09091H72.3214ZM73.3214 8.36364H74.8626V6.36364H73.3214V8.36364ZM73.8626 7.36364V16H75.8626V7.36364H73.8626ZM74.8626 17H77.8881V15H74.8626V17ZM78.8881 16V7.36364H76.8881V16H78.8881ZM77.8881 8.36364H80.0543V6.36364H77.8881V8.36364ZM81.0543 7.36364V5.09091H79.0543V7.36364H81.0543ZM91.4268 12.875L92.4054 13.081L92.6429 11.9531L91.4927 11.8772L91.4268 12.875ZM88.6286 12.6903L88.6944 11.6925L87.948 11.6433L87.6899 12.3454L88.6286 12.6903ZM84.0618 11.3196V10.3196H83.0618V11.3196H84.0618ZM91.4908 11.3196V12.3196H92.4908V11.3196H91.4908ZM84.0618 9.4446L83.0631 9.39324L83.009 10.4446H84.0618V9.4446ZM88.6428 9.4446V10.4446H89.6482L89.6427 9.43914L88.6428 9.4446ZM86.4837 17.2131C89.5133 17.2131 91.8553 15.6941 92.4054 13.081L90.4483 12.669C90.1461 14.1042 88.8518 15.2131 86.4837 15.2131V17.2131ZM91.4927 11.8772L88.6944 11.6925L88.5627 13.6882L91.361 13.8728L91.4927 11.8772ZM87.6899 12.3454C87.5695 12.673 87.2531 12.9545 86.5334 12.9545V14.9545C87.8307 14.9545 89.0768 14.3696 89.5672 13.0353L87.6899 12.3454ZM86.5334 12.9545C86.0049 12.9545 85.6669 12.7856 85.457 12.5636C85.2414 12.3355 85.0618 11.9451 85.0618 11.3267H83.0618C83.0618 12.3347 83.3616 13.2583 84.0036 13.9374C84.6513 14.6227 85.5491 14.9545 86.5334 14.9545V12.9545ZM85.0618 11.3267V11.3196H83.0618V11.3267H85.0618ZM84.0618 12.3196H91.4908V10.3196H84.0618V12.3196ZM92.4908 11.3196V10.4886H90.4908V11.3196H92.4908ZM92.4908 10.4886C92.4908 8.42958 91.8628 6.76889 90.7153 5.62137C89.5714 4.47746 88.0162 3.94886 86.3629 3.94886V5.94886C87.5932 5.94886 88.6019 6.33646 89.3011 7.03559C89.9966 7.73111 90.4908 8.84031 90.4908 10.4886H92.4908ZM86.3629 3.94886C84.5098 3.94886 82.9114 4.61352 81.7813 5.82853C80.6579 7.03632 80.0717 8.7066 80.0717 10.5952H82.0717C82.0717 9.11726 82.5261 7.96439 83.2457 7.19064C83.9587 6.42412 85.0058 5.94886 86.3629 5.94886V3.94886ZM80.0717 10.5952C80.0717 12.5211 80.6461 14.1951 81.7965 15.3936C82.9516 16.5971 84.5841 17.2131 86.4837 17.2131V15.2131C85.0238 15.2131 83.9504 14.7495 83.2394 14.0087C82.5236 13.263 82.0717 12.1281 82.0717 10.5952H80.0717ZM85.0605 9.49596C85.0986 8.75524 85.6316 8.20739 86.4126 8.20739V6.20739C84.509 6.20739 83.1529 7.64816 83.0631 9.39324L85.0605 9.49596ZM86.4126 8.20739C86.8238 8.20739 87.1166 8.3495 87.3067 8.54172C87.4985 8.73573 87.6405 9.0367 87.6428 9.45007L89.6427 9.43914C89.6379 8.55279 89.3218 7.73515 88.7288 7.13548C88.1341 6.53402 87.3154 6.20739 86.4126 6.20739V8.20739ZM88.6428 8.4446H84.0618V10.4446H88.6428V8.4446ZM103.38 12.875L104.359 13.081L104.596 11.9531L103.446 11.8772L103.38 12.875ZM100.582 12.6903L100.648 11.6925L99.9011 11.6433L99.6431 12.3454L100.582 12.6903ZM96.0149 11.3196V10.3196H95.0149V11.3196H96.0149ZM103.444 11.3196V12.3196H104.444V11.3196H103.444ZM96.0149 9.4446L95.0162 9.39324L94.9622 10.4446H96.0149V9.4446ZM100.596 9.4446V10.4446H101.601L101.596 9.43914L100.596 9.4446ZM98.4368 17.2131C101.466 17.2131 103.808 15.6941 104.359 13.081L102.401 12.669C102.099 14.1042 100.805 15.2131 98.4368 15.2131V17.2131ZM103.446 11.8772L100.648 11.6925L100.516 13.6882L103.314 13.8728L103.446 11.8772ZM99.6431 12.3454C99.5226 12.673 99.2063 12.9545 98.4865 12.9545V14.9545C99.7838 14.9545 101.03 14.3696 101.52 13.0353L99.6431 12.3454ZM98.4865 12.9545C97.9581 12.9545 97.62 12.7856 97.4102 12.5636C97.1945 12.3355 97.0149 11.9451 97.0149 11.3267H95.0149C95.0149 12.3347 95.3147 13.2583 95.9567 13.9374C96.6044 14.6227 97.5022 14.9545 98.4865 14.9545V12.9545ZM97.0149 11.3267V11.3196H95.0149V11.3267H97.0149ZM96.0149 12.3196H103.444V10.3196H96.0149V12.3196ZM104.444 11.3196V10.4886H102.444V11.3196H104.444ZM104.444 10.4886C104.444 8.42958 103.816 6.76889 102.668 5.62137C101.524 4.47746 99.9693 3.94886 98.3161 3.94886V5.94886C99.5463 5.94886 100.555 6.33646 101.254 7.03559C101.95 7.73111 102.444 8.84031 102.444 10.4886H104.444ZM98.3161 3.94886C96.463 3.94886 94.8645 4.61352 93.7344 5.82853C92.611 7.03632 92.0249 8.7066 92.0249 10.5952H94.0249C94.0249 9.11726 94.4792 7.96439 95.1989 7.19064C95.9118 6.42412 96.9589 5.94886 98.3161 5.94886V3.94886ZM92.0249 10.5952C92.0249 12.5211 92.5993 14.1951 93.7496 15.3936C94.9047 16.5971 96.5372 17.2131 98.4368 17.2131V15.2131C96.977 15.2131 95.9035 14.7495 95.1925 14.0087C94.4767 13.263 94.0249 12.1281 94.0249 10.5952H92.0249ZM97.0136 9.49596C97.0517 8.75524 97.5848 8.20739 98.3658 8.20739V6.20739C96.4621 6.20739 95.106 7.64816 95.0162 9.39324L97.0136 9.49596ZM98.3658 8.20739C98.7769 8.20739 99.0697 8.3495 99.2598 8.54172C99.4516 8.73573 99.5936 9.0367 99.5959 9.45007L101.596 9.43914C101.591 8.55279 101.275 7.73515 100.682 7.13548C100.087 6.53402 99.2686 6.20739 98.3658 6.20739V8.20739ZM100.596 8.4446H96.0149V10.4446H100.596V8.4446Z" fill="black"/>
</g>
<defs>
<filter id="filter0_d_6_79" x="0.264191" y="0.772705" width="107.18" height="23.4688" filterUnits="userSpaceOnUse" color-interpolation-filters="sRGB">
<feFlood flood-opacity="0" result="BackgroundImageFix"/>
<feColorMatrix in="SourceAlpha" type="matrix" values="0 0 0 0 0 0 0 0 0 0 0 0 0 0 0 0 0 0 127 0" result="hardAlpha"/>
<feOffset dy="4"/>
<feGaussianBlur stdDeviation="2"/>
<feComposite in2="hardAlpha" operator="out"/>
<feColorMatrix type="matrix" values="0 0 0 0 0 0 0 0 0 0 0 0 0 0 0 0 0 0 0.25 0"/>
<feBlend mode="normal" in2="BackgroundImageFix" result="effect1_dropShadow_6_79"/>
<feBlend mode="normal" in="SourceGraphic" in2="effect1_dropShadow_6_79" result="shape"/>
</filter>
</defs>
</svg>
